<svg width="312" height="244" viewBox="0 0 312 244" fill="none" xmlns="http://www.w3.org/2000/svg">
<path d="M26 76C8.14747 96.2865 0.754554 127.491 5.50007 161.5L214 114.296C208.2 97.6457 169.149 67.2522 130.124 57.3445C114.41 53.355 94.4832 48.1614 70 51.5C48 54.5 38.8978 61.3437 26 76Z" fill="#FDA9F0" stroke="#4B3B35" stroke-width="7"/>
<path d="M269.678 63.9386C298.212 80.894 311.471 105.282 307.223 136L120 108.268C125.192 93.2284 138.267 71.2153 163.5 60.5C180.555 53.2575 197.48 50.919 216 51.5C237.507 52.1748 257.836 56.9017 269.678 63.9386Z" fill="#91E4FF" stroke="#4B3B35" stroke-width="7"/>
<path d="M183.463 97.4961C186.463 106.496 187.463 110.996 187.963 116.496L115 113.5C114 110.833 107.256 105.251 103 97.4961C97.474 87.4272 92.615 74.9305 90.9628 67.4961C87.9766 54.0594 82.8281 24.553 81.4628 14.9961C80.4628 7.99609 80.37 0.332708 88.77 5.93271C99.27 12.9327 120.77 30.9328 141.27 49.4328C161.77 67.9328 180.463 88.4961 183.463 97.4961Z" fill="#FFF3B3" stroke="#4B3B35" stroke-width="7"/>
<path d="M95.2153 78.1199C104.426 92.1498 112.142 94.0053 125.411 95.3487C141.524 96.9801 158.695 91.984 165.062 90.4802C170.156 89.2772 171.963 87.4961 171.963 81.9961" stroke="#4B3B35" stroke-width="5"/>
<path d="M82.4628 24.4961C86.4628 34.9961 90.4628 36.9373 97.4628 38.9961C105.963 41.4961 115.463 39.4961 118.963 38.9961C121.763 38.5961 124.129 36.3294 124.963 35.4961" stroke="#4B3B35" stroke-width="5"/>
<path d="M87.1082 54.5239C94.6445 65.7035 100.987 67.1626 111.9 68.1961C125.152 69.4511 138.219 67.2163 143.463 65.9961C147.657 65.0199 150.463 64.4961 151.463 57.4961" stroke="#4B3B35" stroke-width="5"/>
<path d="M9.99994 181.5C3.15305 161.554 2.5 140.5 4.9999 127.5L39 121L43.0001 104.5C45.6668 94.1667 43.0001 95 49.0001 91C55.0001 87 92.5002 78 92.5002 78C92.5002 78 94.489 82.1174 96.0002 85.5C100.307 95.1411 111.133 107.625 112.5 107.612C128.436 107.458 137.904 100.493 154.5 101C168.404 101.425 189.5 107.612 189.5 107.612C189.5 107.612 201.167 110.667 213.5 106.5C215.667 101 237.4 74.9 251 70.5C264.6 66.1 273.5 108.167 276.5 121L308 127.5C308.667 137.667 306.5 165 300.5 181.5C293.327 201.224 276.27 220.864 251 232C235.545 238.811 213.5 240 213.5 240H96.0002C80.0912 239.198 70.5053 238.187 57.5 232C33.9947 220.819 18.8778 207.362 9.99994 181.5Z" fill="#D9D9D9" stroke="#4B3B35" stroke-width="7"/>
<path d="M54 106C47.9986 102.874 45.954 100.558 46.5001 95C46.7654 92.3003 52.5 89.5 52.5 89.5L89.5 79.5C89.5 94 88.5 99 86.5 103.5C83.8795 109.396 63.8709 111.142 54 106Z" stroke="#4B3B35" stroke-width="7"/>
<path d="M134 152.467C135.022 159.4 139.622 161 145.755 161C154.955 161 157 145 157 145" stroke="#4B3B35" stroke-width="7" stroke-linecap="round"/>
<path d="M180 152.467C178.978 159.4 174.378 161 168.245 161C159.045 161 157 145 157 145" stroke="#4B3B35" stroke-width="7" stroke-linecap="round"/>
<circle cx="113.5" cy="145.5" r="9.5" fill="#4B3B35"/>
<circle cx="201.5" cy="145.5" r="9.5" fill="#4B3B35"/>
<path d="M66.1996 150.506L38 149" stroke="#4B3B35" stroke-width="10" stroke-linecap="round"/>
<path d="M38 173.14L61.1732 167" stroke="#4B3B35" stroke-width="10" stroke-linecap="round"/>
<path d="M243 151H274" stroke="#4B3B35" stroke-width="10" stroke-linecap="round"/>
<path d="M251.126 166.516L274.126 172.516" stroke="#4B3B35" stroke-width="10" stroke-linecap="round"/>
</svg>
