<svg width="312" height="244" fill="none" xmlns="http://www.w3.org/2000/svg"><path fill="#F5F5F5" d="M0 0h312v244H0z"/><path d="M26 76C8.147 96.287.755 127.491 5.5 161.5L214 114.296c-5.8-16.65-44.851-47.044-83.876-56.952C114.41 53.355 94.484 48.161 70 51.5c-22 3-31.102 9.844-44 24.5Z" fill="#FDA9F0" stroke="#4B3B35" stroke-width="7"/><path d="M269.678 63.939c28.534 16.955 41.793 41.343 37.545 72.061L120 108.268c5.192-15.04 18.267-37.053 43.5-47.768 17.055-7.242 33.98-9.581 52.5-9 21.507.675 41.836 5.402 53.678 12.439Z" fill="#91E4FF" stroke="#4B3B35" stroke-width="7"/><path d="M183.463 97.496c3 9 4 13.5 4.5 19L115 113.5c-1-2.667-7.744-8.249-12-16.004-5.526-10.069-10.385-22.566-12.037-30-2.986-13.437-8.135-42.943-9.5-52.5-1-7-1.093-14.663 7.307-9.063 10.5 7 32 25 52.5 43.5s39.193 39.063 42.193 48.063Z" fill="#FFF3B3" stroke="#4B3B35" stroke-width="7"/><path d="M95.215 78.12c9.211 14.03 16.927 15.885 30.196 17.229 16.113 1.631 33.284-3.365 39.651-4.869 5.094-1.203 6.901-2.984 6.901-8.484M82.463 24.496c4 10.5 8 12.441 15 14.5 8.5 2.5 18 .5 21.5 0 2.8-.4 5.166-2.667 6-3.5M87.108 54.524c7.536 11.18 13.879 12.639 24.792 13.672 13.252 1.255 26.319-.98 31.563-2.2 4.194-.976 7-1.5 8-8.5" stroke="#4B3B35" stroke-width="5"/><path d="M10 181.5c-6.847-19.946-7.5-41-5-54l34-6.5 4-16.5c2.667-10.333 0-9.5 6-13.5s43.5-13 43.5-13 1.989 4.117 3.5 7.5c4.307 9.641 15.133 22.125 16.5 22.112 15.936-.154 25.404-7.119 42-6.612 13.904.425 35 6.612 35 6.612s11.667 3.055 24-1.112c2.167-5.5 23.9-31.6 37.5-36 13.6-4.4 22.5 37.667 25.5 50.5l31.5 6.5c.667 10.167-1.5 37.5-7.5 54-7.173 19.724-24.23 39.364-49.5 50.5-15.455 6.811-37.5 8-37.5 8H96c-15.909-.802-25.495-1.813-38.5-8-23.505-11.181-38.622-24.638-47.5-50.5Z" fill="#D9D9D9" stroke="#4B3B35" stroke-width="7"/><path d="M54 106c-6.001-3.126-8.046-5.442-7.5-11 .265-2.7 6-5.5 6-5.5l37-10c0 14.5-1 19.5-3 24-2.62 5.896-22.63 7.642-32.5 2.5Z" stroke="#4B3B35" stroke-width="7"/><path d="M134 152.467c1.022 6.933 5.622 8.533 11.755 8.533 9.2 0 11.245-16 11.245-16M180 152.467c-1.022 6.933-5.622 8.533-11.755 8.533-9.2 0-11.245-16-11.245-16" stroke="#4B3B35" stroke-width="7" stroke-linecap="round"/><circle cx="113.5" cy="145.5" r="9.5" fill="#4B3B35"/><circle cx="201.5" cy="145.5" r="9.5" fill="#4B3B35"/><path d="M66.2 150.506 38 149M38 173.14 61.173 167M243 151h31M251.126 166.516l23 6" stroke="#4B3B35" stroke-width="10" stroke-linecap="round"/></svg>