<svg width="215" height="198" fill="none" xmlns="http://www.w3.org/2000/svg"><path fill="#F5F5F5" d="M0 0h215v198H0z"/><ellipse cx="107.5" cy="158.5" rx="103.5" ry="29.5" fill="#D9D9D9" stroke="#4B3B35" stroke-opacity=".4" stroke-width="7"/><path d="M3.5 152V70h208v82s-.089 5.678-1.5 8.5c-5.5 11-22 24.514-51 30-29 5.486-74.5 6.297-101 0-17.662-4.197-41.5-10-51-25.5-3.346-5.459-3.5-13-3.5-13Z" fill="#D9D9D9" stroke="#4B3B35" stroke-width="6" stroke-linecap="round"/><path d="M3.5 139V86.5h208V139s-.089 5.678-1.5 8.5c-5.5 11-22 24.514-51 30-29 5.486-74.5 6.297-101 0-17.662-4.197-41.5-10-51-25.5-3.346-5.459-3.5-13-3.5-13Z" fill="#FF8181" stroke="#4B3B35" stroke-width="6" stroke-linecap="round"/><circle cx="107.5" cy="141.5" r="49.5" fill="#fff"/><path d="m62 183.5 45.5 3 41.5-3" stroke="#D9D9D9" stroke-width="12" stroke-linecap="round"/><path d="M3.5 152s.154 7.541 3.5 13c9.5 15.5 33.338 21.303 51 25.5 26.5 6.297 72 5.486 101 0s45.5-19 51-30c1.411-2.822 1.5-8.5 1.5-8.5" stroke="#4B3B35" stroke-width="6" stroke-linecap="round"/><path d="M3.5 139s.154 7.541 3.5 13c9.5 15.5 33.338 21.303 51 25.5 26.5 6.297 72 5.486 101 0s45.5-19 51-30c1.411-2.822 1.5-8.5 1.5-8.5" stroke="#4B3B35" stroke-width="6" stroke-linecap="round"/><ellipse cx="107.5" cy="83.5" rx="103.5" ry="29.5" fill="#D9D9D9" stroke="#4B3B35" stroke-width="7"/><ellipse cx="107.5" cy="69.5" rx="103.5" ry="29.5" fill="#D9D9D9" stroke="#4B3B35" stroke-width="7"/><path d="M138 156c-2.502-3.139-4.982-6.725-7.805-10.209-6.963 8.786-16.093 17.709-30.195 17.709-20 0-25.5-16.5-25.5-16.5s4-17 25.5-17c15.073 0 23.575 7.618 30.195 15.791 2.912-3.676 5.446-7.327 7.805-10.291V156Z" fill="#4B3B35" stroke="#4B3B35" stroke-width="7" stroke-linecap="round"/><path d="M108 31.5c-.8-.4-9.667-5.167-14-7.5l-2.5-8.5 9-8 13.5 1 11.5 4.5 4 9.5" stroke="#D9D9D9" stroke-width="5" stroke-linecap="round"/><path d="M103.5 11c9.049-1.751 19.5 1 24 13.5l-13 5s-17.783-5.193-18-10.5c-.169-4.139 1.785-6.99 7-8Z" stroke="#4B3B35" stroke-width="5" stroke-linecap="round"/><path d="M110 3.5c12.292 1.21 26.5 9 24 24.5l-22 8s-23.666-6.192-24-18.5c-.26-9.598 10.619-15.12 22-14Z" stroke="#4B3B35" stroke-width="5" stroke-linecap="round"/><path d="M75.5 57c-12.858 12.278-26 34.5-26 34.5l3.5 2L151.5 51c8-8 19.6-23.3 12-28.5-9.5-6.5-37 1-54.5 9.5-14 6.8-21.694 13.727-33.5 25Z" fill="#D9D9D9" stroke="#4B3B35" stroke-width="7" stroke-linecap="round"/><path d="M150 52.5c6.667 1.667 18.365 3.46 27 6 8.5 2.5 20 7 24 11.5 3.2 3.6 3.5 7 2 10M121.5 39l4.5-4 7.5 1.5" stroke="#4B3B35" stroke-width="5" stroke-linecap="round"/><path d="M151 59c-3.5.333-9.1-2.9-11.5-2.5l-8.5 4L52.5 95 80 98l40 1.5 28.5-3 24.5-4 14-4.5 11-5-4-9h-7l-5-7-9-3h-14.5l-7.5-5Z" fill="#F2AD85" stroke="#4B3B35" stroke-width="5" stroke-linecap="round"/><path d="m143 70.5-6.5 6.5M93.5 91l7.5-4.5M163.5 80l3 1.5" stroke="#4B3B35" stroke-width="5" stroke-linecap="round"/></svg>