<svg width="477" height="412" viewBox="0 0 477 412" fill="none" xmlns="http://www.w3.org/2000/svg">
<path fill-rule="evenodd" clip-rule="evenodd" d="M356.036 90.6902C348.235 134.933 318.355 166.645 289.298 161.521C260.24 156.398 243.009 116.379 250.81 72.1359C258.611 27.8933 288.491 -3.81897 317.548 1.30466C346.606 6.42828 363.837 46.4475 356.036 90.6902ZM181.33 161.521C210.387 156.398 227.619 116.379 219.818 72.1359C212.017 27.8933 182.137 -3.81895 153.079 1.30467C124.022 6.42829 106.79 46.4476 114.591 90.6902C122.392 134.933 152.272 166.645 181.33 161.521ZM85.2284 246.422C112.955 236.33 122.975 193.927 107.61 151.711C92.2448 109.495 57.3121 83.453 29.5857 93.5446C1.8594 103.636 -8.1612 146.04 7.2041 188.256C22.5694 230.471 57.5021 256.513 85.2284 246.422ZM373.764 258.012C399.317 272.765 438.241 253.185 460.704 214.279C483.166 175.372 480.661 131.873 455.108 117.12C429.556 102.367 390.632 121.947 368.169 160.854C345.706 199.76 348.211 243.259 373.764 258.012Z" fill="#FF5B5B"/>
<path fill-rule="evenodd" clip-rule="evenodd" d="M356.036 90.6902C348.235 134.933 318.355 166.645 289.298 161.521C260.24 156.398 243.009 116.379 250.81 72.1359C258.611 27.8933 288.491 -3.81897 317.548 1.30466C346.606 6.42828 363.837 46.4475 356.036 90.6902ZM181.33 161.521C210.387 156.398 227.619 116.379 219.818 72.1359C212.017 27.8933 182.137 -3.81895 153.079 1.30467C124.022 6.42829 106.79 46.4476 114.591 90.6902C122.392 134.933 152.272 166.645 181.33 161.521ZM85.2284 246.422C112.955 236.33 122.975 193.927 107.61 151.711C92.2448 109.495 57.3121 83.453 29.5857 93.5446C1.8594 103.636 -8.1612 146.04 7.2041 188.256C22.5694 230.471 57.5021 256.513 85.2284 246.422ZM373.764 258.012C399.317 272.765 438.241 253.185 460.704 214.279C483.166 175.372 480.661 131.873 455.108 117.12C429.556 102.367 390.632 121.947 368.169 160.854C345.706 199.76 348.211 243.259 373.764 258.012Z" fill="#FF5B5B"/>
<path d="M134.723 259.108C163 223.5 170.604 220.77 182.552 211.635C194.5 202.5 237.601 179.609 278.21 211.635C319.59 249.57 341.304 275.401 361.655 328.253C368.014 344.765 382.5 406 326.038 410.814C269.577 415.627 273 386 232 381C191 376 193.046 410.814 152.023 410.814C111 410.814 89.0001 372.009 97.0001 337.5C105 302.991 106.446 294.716 134.723 259.108Z" fill="#FF5B5B" stroke="#FF5B5B"/>
</svg>
