<svg width="765" height="491" fill="none" xmlns="http://www.w3.org/2000/svg"><path d="m572.436 373.64-6.209 3.212 6.39 3.226 40.756 20.581c.239.328.515.618.812.863.851.702 1.813 1.004 2.497 1.159 1.419.321 3.178.327 4.981.192 3.708-.277 8.713-1.245 14.19-2.769 10.925-3.042 24.409-8.487 33.987-15.844 1.298-.997 2.564-1.962 3.798-2.903 8.042-6.131 14.744-11.24 20.229-17.526 6.46-7.403 11.181-16.339 15.046-30.343 5.591-20.258 6.698-41.497-.185-57.268-.691-1.583-1.353-3.088-1.986-4.526-4.364-9.917-7.296-16.58-8.157-22.799-.915-6.606.534-12.942 6.748-22.397 4.792-7.291 7.753-14.294 8.236-21.25.492-7.087-1.613-13.719-6.2-20.081-5.971-8.283-17.451-13.196-28.655-10.779-11.546 2.49-18.663 9.682-23.064 20.088-4.294 10.151-6.061 23.472-7.214 38.612-1.5 19.717 2.69 31.372 6.682 41.148.243.596.484 1.181.722 1.759 3.584 8.713 6.388 15.532 4.783 26.342-1.442 9.714-7.15 17.512-14.842 24.374-5.946 5.305-12.761 9.794-19.322 14.115a500.235 500.235 0 0 0-5.878 3.91c-12.366 8.396-24.411 15.627-33.37 20.762a511.884 511.884 0 0 1-10.758 6.002 355.306 355.306 0 0 1-3.759 2.006l-.196.102-.048.025-.011.006-.003.001Z" fill="#FFB37C" stroke="#4B3B35" stroke-width="7"/><path d="m667 178.431 16.5-5.346 14 5.346 12 12.296 5 17.642-9 18.711-6 12.83c-.333 2.317-2.1 7.591-6.5 10.157-5.5 3.208-13 4.277-26 3.208-10.4-.855-17.333-10.692-19.5-15.503l4.5-37.957 15-21.384Z" fill="#fff"/><path d="m572.436 373.64-6.209 3.212 6.39 3.226 40.756 20.581c.239.328.515.618.812.863.851.702 1.813 1.004 2.497 1.159 1.419.321 3.178.327 4.981.192 3.708-.277 8.713-1.245 14.19-2.769 10.925-3.042 24.409-8.487 33.987-15.844 1.298-.997 2.564-1.962 3.798-2.903 8.042-6.131 14.744-11.24 20.229-17.526 6.46-7.403 11.181-16.339 15.046-30.343 5.591-20.258 6.698-41.497-.185-57.268-.691-1.583-1.353-3.088-1.986-4.526-4.364-9.917-7.296-16.58-8.157-22.799-.915-6.606.534-12.942 6.748-22.397 4.792-7.291 7.753-14.294 8.236-21.25.492-7.087-1.613-13.719-6.2-20.081-5.971-8.283-17.451-13.196-28.655-10.779-11.546 2.49-18.663 9.682-23.064 20.088-4.294 10.151-6.061 23.472-7.214 38.612-1.5 19.717 2.69 31.372 6.682 41.148.243.596.484 1.181.722 1.759 3.584 8.713 6.388 15.532 4.783 26.342-1.442 9.714-7.15 17.512-14.842 24.374-5.946 5.305-12.761 9.794-19.322 14.115a500.235 500.235 0 0 0-5.878 3.91c-12.366 8.396-24.411 15.627-33.37 20.762a511.884 511.884 0 0 1-10.758 6.002 355.306 355.306 0 0 1-3.759 2.006l-.196.102-.048.025-.011.006-.003.001Z" stroke="#4B3B35" stroke-width="7"/><path d="M62.5 199.28c-2.628-16.575-13.783-40.149-6-70.033 5.682-21.817 22.863-45.508 22.863-45.508s25.669-59.904 35.107-58.33c9.437 1.573 22.536 46.224 22.536 46.224S144.552 69.29 151 67.93c14.671-3.092 24.077-7.397 40.237-6.772C204.776 61.682 225 71.633 225 71.633s8.491 1.429 20.5-3.702c4-6.772 34.832-37.105 48.075-42.522 13.242-5.418 13.534 44.575 16.455 60.377 0 0 2.915 13.929 7.97 24.75 4.722 10.109 11 27.8 11 27.8s116.886-7.566 168 9.622c75.5 25.389 138.5 62.147 138.5 184.973 0 27.264-13.455 80.172-25 80.172H310.03L128.5 409.5s-42.5.07-56 0c-11.5-.059-29.48-55.907-30.79-96.65-1.657-51.557 25.02-86.895 20.79-113.57Z" fill="#FFB37C" stroke="#4B3B35" stroke-width="7"/><path d="M432.5 355.919c58.612-5.387 123.603-2.216 155 9.088 18.603 6.698 34.5 25.102 34.5 25.102l-11.5 24.081H303s24.619-16.577 29-24.081c5.107-8.749 10.875-11.973 19.483-16.627 31.427-16.992 45.929-14.339 81.017-17.563Z" fill="#fff"/><path d="M370 175c-5.5-16-27.5-37.5-27.5-37.5l12.5-3s2.704-.316 17 3c8.581 1.991 8.5-3 22.5-3 22.326 0 13.635 63.461-19.195 100.5-19.5 22 .195-44-5.305-60ZM471.743 175.001C468.211 164.208 457.5 142 457.5 142h27s11 3.5 24 7.5c23 23-6.522 82.501-47.022 110.501-23.839 16.481 20.505-53.709 10.265-85ZM577.5 214c-1.363-19.787-14-35.5-14-35.5l11.5 5 28.5 28.5s1.555 45.375-43.398 62.5c-31.5 12 19.081-36.079 17.398-60.5ZM143.695 292.5C131.017 284.772 112.5 255 112.5 255l45.195 19.5s13.648 1.265 22.305 0c20.139-2.942 55.5-19.5 55.5-19.5s-29.254 30.071-50.805 37.5c-15.334 5.285-27.27 8.37-41 0Z" fill="#F0914E"/><path d="M96.5 358.057c5.167-1.96 36.801-4.946 46.5 6.415 5.747 6.732 6 21.237 6 21.237v24.204l-80-2.285-6.5-20.168c.833-3.386 2.773-9.25 6.5-13.9 9-11.226 21.167-12.474 27.5-15.503ZM220 362.334c-5.615-1.951-31.46-5.424-42 5.88-6.245 6.698-15.5 22.567-15.5 22.567l-2.5 20.066h89s5.508-9.63 5.5-16.972c-.008-7.325-3.513-12.297-7.564-16.923-9.78-11.17-20.054-11.604-26.936-14.618Z" fill="#fff"/><path d="M62.5 199.28c-2.628-16.575-13.783-40.149-6-70.033 5.682-21.817 22.863-45.508 22.863-45.508s25.669-59.904 35.107-58.33c9.437 1.573 22.536 46.224 22.536 46.224S144.552 69.29 151 67.93c14.671-3.092 24.077-7.397 40.237-6.772C204.776 61.682 225 71.633 225 71.633s8.491 1.429 20.5-3.702c4-6.772 34.832-37.105 48.075-42.522 13.242-5.418 13.534 44.575 16.455 60.377 0 0 2.915 13.929 7.97 24.75 4.722 10.109 11 27.8 11 27.8s116.886-7.566 168 9.622c75.5 25.389 138.5 62.147 138.5 184.973 0 27.264-13.455 80.172-25 80.172H310.03L128.5 409.5s-42.5.07-56 0c-11.5-.059-29.48-55.907-30.79-96.65-1.657-51.557 25.02-86.895 20.79-113.57Z" stroke="#4B3B35" stroke-width="7"/><path d="M157.702 124.02c.915 5.723 5.032 7.044 10.522 7.044 8.235 0 10.065-13.207 10.065-13.207M196.817 124.02c-.824 5.723-4.529 7.044-9.47 7.044-7.411 0-9.058-13.207-9.058-13.207" stroke="#4B3B35" stroke-width="5" stroke-linecap="round"/><ellipse cx="137.115" cy="115.656" rx="8.235" ry="8.805" fill="#4B3B35"/><ellipse cx="219.462" cy="115.656" rx="8.235" ry="8.805" fill="#4B3B35"/><path d="m108.213 115.734-22.564-2.279M85.648 135.466l18.543-1.36M249.686 116.483h24.805M256.188 133.374l16.8 4.293M28.412 135.058c-3.088 7.704-4.324 16.288 3.088 24.212M8.964 124.052c-7.767 10.786-9.74 38.52 5.147 47.325" stroke="#4B3B35" stroke-width="5" stroke-linecap="round"/><path d="M150.097 407.277c8.603-48.44-23.097-63.654-45.597-63.654m54.2 63.654c6.881-52.242 61.075-62.542 81.72-59.476" stroke="#4B3B35" stroke-width="6"/></svg>