<svg width="340" height="219" fill="none" xmlns="http://www.w3.org/2000/svg"><path d="m324.505 151.993 2.849 2.032v.001l-.002.003-.008.011-.031.043-.116.162a300.09 300.09 0 0 1-1.999 2.758 330.018 330.018 0 0 1-4.801 6.411c-1.755 2.278-3.594 4.578-5.075 6.217-.711.787-1.477 1.576-2.18 2.123-.286.224-.918.697-1.746.933a3.832 3.832 0 0 1-2.006.031H291l-1.565-6.627-.001-.003v-.001l.007-.003.035-.018.154-.078a93.318 93.318 0 0 0 2.92-1.587 108.383 108.383 0 0 0 7.458-4.635c5.845-3.981 11.975-9.1 14.86-14.266 2.034-3.643 3.79-7.595 4.852-11.132 1.115-3.716 1.262-6.323.846-7.656-1.43-4.577-2.792-7.29-4.024-9.052-1.192-1.704-2.36-2.666-3.725-3.646-.23-.165-.476-.336-.736-.518-1.267-.884-2.856-1.994-4.401-3.587-1.925-1.985-3.747-4.645-5.524-8.685-2.855-6.488-4.219-14.122-3.867-21.031.344-6.775 2.394-13.619 7.223-17.643 2.751-2.292 6.19-2.71 8.882-1.027 2.558 1.599 3.851 4.858 2.591 8.008a38.592 38.592 0 0 1-1.155 2.579c-.864 1.8-1.675 3.489-2.887 8.337-1.012 4.049-1.166 6.99.032 10.195 1.264 3.384 4.189 7.475 10.354 13.345.299.286.601.571.903.856 2.116 2 4.273 4.039 6.079 6.498 2.149 2.928 3.776 6.386 4.798 11.208 1.483 7.004-.629 14.985-2.784 20.786a78.5 78.5 0 0 1-3.206 7.405c-.456.921-.845 1.66-1.123 2.175-.14.257-.251.459-.33.599l-.093.164-.027.047-.008.014-.003.005-.001.002c0 .001-.001.001-3.029-1.753Zm0 0 2.85 2.032.096-.135.082-.143-3.028-1.754Z" fill="#D9D9D9" stroke="#4B3B35" stroke-width="7"/><path d="M38 90.5c-1.528-9.01-8.812-13.775-4.288-30.02 3.303-11.861 13.674-24.53 13.674-24.53S62.306 3.383 67.79 4.24c5.486.855 13.1 25.128 13.1 25.128s5.226.739 8.974 0c8.527-1.681 13.155-6.034 22.548-5.694 7.869.285 19.808 4.426 19.808 4.426s6.603 2.045 13.584-.744c1.226-3.682 18.394-20.172 26.091-23.117 7.697-2.945 7.867 24.232 9.565 32.823 0 0 7.102 15.96 9.581 23.418 2.784 8.377 6.458 23.02 6.458 23.02s57.55 23.208 82 42.5c25.29 19.956 42 43 42 71 0 12.673-9 18-9 18H181.461L43 213s-16.739-30.351-17.5-52.5c-.963-28.028 14.958-55.499 12.5-70Z" fill="#D9D9D9" stroke="#4B3B35" stroke-width="7"/><path d="M92.92 57.847c.532 3.111 2.925 3.83 6.116 3.83 4.786 0 5.85-7.18 5.85-7.18M115.656 57.847c-.479 3.111-2.633 3.83-5.505 3.83-4.308 0-5.265-7.18-5.265-7.18" stroke="#4B3B35" stroke-width="5" stroke-linecap="round"/><circle cx="80.954" cy="53.3" r="4.786" fill="#4B3B35"/><circle cx="128.818" cy="53.3" r="4.786" fill="#4B3B35"/><path d="m64.155 53.343-13.115-1.24M51.039 64.07l10.778-.74M146.385 53.75h14.419M150.165 62.932l9.765 2.334M17.77 63.847c-1.794 4.188-2.512 8.855 1.795 13.163M6.467 57.864C1.952 63.728.805 78.804 9.458 83.591" stroke="#4B3B35" stroke-width="5" stroke-linecap="round"/><path d="M284 185.298c0 6.24-8.184 11.702-14.259 11.702-6.075 0-7.741-5.462-7.741-11.702S269.369 174 275.444 174c6.076 0 8.556 5.058 8.556 11.298ZM205.031 133.137c10.331-20.817 40.809-11.064 58.713-2.178 17.903 8.885 12.807 32.855-22.272 37.127-15.03-7.459-36.8 25.099-54.703 16.214-17.904-8.886 7.93-30.346 18.262-51.163Z" fill="#fff"/><path d="M88.5 211.833C93.5 185.5 69.167 183.5 59 179.5m34.5 32.333c4-28.4 35.5-34 47.5-32.333" stroke="#4B3B35" stroke-width="6"/></svg>