<svg width="206" height="160" fill="none" xmlns="http://www.w3.org/2000/svg"><path fill="#F5F5F5" d="M0 0h206v160H0z"/><path d="M5 120.5C2.2 115.3 3.5 97 3.5 97S9.16 55.04 19 36.5c3.047-5.741 4-7.5 4-7.5 52.5-1.833 153.3-9.3 160.5-2.5 7.2 6.8 19 70.5 19 70.5s2 12.5 0 23.5-22.5 24-54 30.5c-28.658 5.914-60.5 9-93 0S8.5 127 5 120.5Z" fill="#FFB697" stroke="#4B3B35" stroke-width="5" stroke-linecap="round"/><path d="M188 39.5c0 9.006-8.178 18.142-23.722 25.2C149.006 71.632 127.697 76 104 76c-23.697 0-45.006-4.367-60.278-11.3C28.178 57.641 20 48.505 20 39.5s8.178-18.142 23.722-25.2C58.994 7.368 80.302 3 104 3c23.697 0 45.006 4.367 60.278 11.3C179.822 21.359 188 30.495 188 39.5Z" fill="#F9CAAF" stroke="#4B3B35" stroke-width="6"/><path d="M176 40c0 2.882-1.489 5.954-4.886 9.08-3.4 3.13-8.486 6.086-15.023 8.63C143.036 62.792 124.797 66 104.5 66s-38.536-3.208-51.591-8.29c-6.537-2.544-11.623-5.5-15.023-8.63C34.49 45.955 33 42.883 33 40c0-2.882 1.489-5.954 4.886-9.08 3.4-3.13 8.486-6.086 15.023-8.63C65.964 17.208 84.203 14 104.5 14s38.536 3.208 51.591 8.29c6.537 2.544 11.623 5.5 15.023 8.63C174.511 34.045 176 37.117 176 40Z" fill="#F2AD85" stroke="#4B3B35" stroke-width="6"/><path d="m73.5 30.5-26 8.5H46l-7.5 9.5 12 6.5 20 7 29 2H134l26.5-9 8.5-8.5-6-7.5-15.5-6.5L121 28H97.5l-24 2.5Z" fill="#B0E5FC"/><path d="M176 40c0 2.882-1.489 5.954-4.886 9.08-3.4 3.13-8.486 6.086-15.023 8.63C143.036 62.792 124.797 66 104.5 66s-38.536-3.208-51.591-8.29c-6.537-2.544-11.623-5.5-15.023-8.63C34.49 45.955 33 42.883 33 40c0-2.882 1.489-5.954 4.886-9.08 3.4-3.13 8.486-6.086 15.023-8.63C65.964 17.208 84.203 14 104.5 14s38.536 3.208 51.591 8.29c6.537 2.544 11.623 5.5 15.023 8.63C174.511 34.045 176 37.117 176 40Z" stroke="#4B3B35" stroke-width="6"/><path d="M171 48c0-11.046-30.489-20-68.1-20C65.29 28 38 36.954 38 48" stroke="#4B3B35" stroke-width="6"/><path fill-rule="evenodd" clip-rule="evenodd" d="M110.602 93.664c2.208 6.067.768 12.16-3.217 13.61-3.984 1.45-9.004-2.292-11.212-8.358-2.208-6.067-.768-12.16 3.216-13.61 3.985-1.45 9.005 2.292 11.213 8.358Zm-16.653 21.368c3.248-2.726 2.517-8.944-1.633-13.89-4.15-4.945-10.146-6.745-13.394-4.02-3.248 2.726-2.517 8.945 1.632 13.89 4.15 4.945 10.147 6.745 13.395 4.02Zm-5.86 17.47c2.726-3.248.926-9.245-4.02-13.395-4.945-4.149-11.163-4.88-13.888-1.632-2.726 3.248-.926 9.245 4.02 13.394 4.945 4.15 11.163 4.881 13.889 1.633Zm36.741-19.289c4.24 0 7.677-5.233 7.677-11.689s-3.437-11.689-7.677-11.689-7.677 5.233-7.677 11.689 3.437 11.689 7.677 11.689Z" fill="#fff"/><path fill-rule="evenodd" clip-rule="evenodd" d="M110.602 93.664c2.208 6.067.768 12.16-3.217 13.61-3.984 1.45-9.004-2.292-11.212-8.358-2.208-6.067-.768-12.16 3.216-13.61 3.985-1.45 9.005 2.292 11.213 8.358Zm-16.653 21.368c3.248-2.726 2.517-8.944-1.633-13.89-4.15-4.945-10.146-6.745-13.394-4.02-3.248 2.726-2.517 8.945 1.632 13.89 4.15 4.945 10.147 6.745 13.395 4.02Zm-5.86 17.47c2.726-3.248.926-9.245-4.02-13.395-4.945-4.149-11.163-4.88-13.888-1.632-2.726 3.248-.926 9.245 4.02 13.394 4.945 4.15 11.163 4.881 13.889 1.633Zm36.741-19.289c4.24 0 7.677-5.233 7.677-11.689s-3.437-11.689-7.677-11.689-7.677 5.233-7.677 11.689 3.437 11.689 7.677 11.689Z" fill="#fff"/><path d="M95.16 130.525c.961-6.463 1.711-7.349 2.542-9.345.83-1.995 4.549-7.941 11.904-6.873 7.875 1.748 12.434 3.402 18.764 8.517 1.977 1.599 8.18 8.178 1.499 12.834-6.68 4.656-8.383.723-13.845 3.046-5.461 2.324-2.705 6.51-7.811 9.457-5.105 2.948-10.63-.301-12.115-5.17-1.483-4.87-1.898-6.003-.938-12.466Z" fill="#fff" stroke="#fff"/></svg>